<svg xmlns="http://www.w3.org/2000/svg" width="1000" height="750" viewBox="0 0 1000 750">
  <defs>
    <clipPath id="paper"><rect x="50" y="45" width="900" height="660" rx="2"/></clipPath>
    <linearGradient id="sun" x1="0" y1="0" x2="1" y2="1"><stop stop-color="#ffab58"/><stop offset="1" stop-color="#f35c3f"/></linearGradient>
  </defs>
  <rect width="1000" height="750" fill="#23242b"/>
  <rect x="50" y="45" width="900" height="660" fill="#f0e8d9"/>
  <g clip-path="url(#paper)">
    <rect x="50" y="45" width="295" height="660" fill="#b8b6e4"/>
    <circle cx="632" cy="241" r="149" fill="url(#sun)"/>
    <path d="M165 705V344a177 177 0 0 1 354 0v361" fill="#282b38"/>
    <path d="M250 705V351a92 92 0 0 1 184 0v354" fill="#d7dfc3"/>
    <path d="M438 569c100-126 204-137 371-72l141 76v132H438Z" fill="#71639b"/>
    <path d="M542 615c96-83 208-109 366-28" fill="none" stroke="#f0e8d9" stroke-width="7"/>
    <path d="M584 650c91-61 192-68 324-22" fill="none" stroke="#f0e8d9" stroke-width="3"/>
    <path d="M342 45v105M781 388h169" stroke="#282b38" stroke-width="4"/>
    <circle cx="139" cy="126" r="21" fill="#f0e8d9"/>
    <rect x="753" y="105" width="114" height="17" fill="#282b38" transform="rotate(-18 753 105)"/>
  </g>
</svg>
